#!OML:ASF F:\VICON\USERDATA\INSTALL\rory3\rory3.ASF
:FULLY-SPECIFIED
:DEGREES
90
root 0.5979397050033227 17.62837636221357 53.16150330821871 -2.222046183331831 2.455764957610685 0.4870501452100999
lfemur 14.416515932430697 -4.727682283645706 -24.687057929377396
ltibia 18.93549144703528
lfoot -8.654660478997458 -6.2133437823502735
ltoes -15.983609277686748
rfemur -27.083439283787076 2.850496515395829 21.37528869264886
rtibia 23.163441733279775
rfoot -7.267711951981119 -13.086419147554825
rtoes -6.102897538206792
lowerback 10.047167881523924 -1.6378558593584034 -3.3038204895785004
upperback -0.18892092848605951 -2.662401081077698 1.7926934385499982
thorax -5.630333511960288 -1.1999233849407978 5.025549736773422
lowerneck -16.631353431484253 -3.1115213840812923 -3.534720625870027
upperneck 21.80817388503138 -3.8327782198715155 1.699791006730449
head 9.676493761104972 -1.839073247762775 0.6922788386237168
lclavicle -2.0239880076433553e-15 -7.101726728581227e-16
lhumerus -23.957841585817413 -1.76039916746746 80.01994029221935
lradius 31.273931316226793
lwrist 10.775032089761464
lhand -31.478350365608637 18.48918792062438
lfingers 7.12502
lthumb -4.742766531666995 48.34384759489637
rclavicle -2.024572727087378e-15 -7.105300429824778e-16
rhumerus -33.48395503214125 -23.845072620195957 -73.86481095063623
rradius 20.140301635277154
rwrist 8.923428816205961
rhand -17.99349468272025 22.84531485726581
rfingers 7.12502
rthumb 8.10415400478817 -7.242817528778959
91
root 0.5294211770899002 17.68738405919612 53.801148013294174 -2.7432089040949426 2.5341121157865283 -0.9796371076324848
lfemur 12.709513248349007 -5.054161871122095 -22.70171219810672
ltibia 27.17546086684815
lfoot -2.9297207326742756 -9.116418338190456
ltoes -18.89216094789615
rfemur -25.838570295532932 2.8606277899233117 23.540698007805943
rtibia 24.6636425537395
rfoot -6.797415650592357 -10.742343133071532
rtoes -2.6546331593442862
lowerback 10.055412558322274 -1.759156833453982 -1.9345336744579262
upperback -0.2562038170554589 -2.608569139627381 2.2495832046176965
thorax -5.729261776613821 -1.2023140186970513 4.728078384981813
lowerneck -16.537059256011702 -3.0613996643573045 -3.547603932574364
upperneck 21.976805222418253 -3.7146128622040058 1.430769295998026
head 9.705830279734238 -1.8124869027759738 0.6448068242980904
lclavicle -2.02421995902238e-15 -7.103220912013462e-16
lhumerus -25.13948997875159 -0.5102598052422165 80.38397485983866
lradius 31.211197705302958
lwrist 10.381478475153335
lhand -31.321548413216224 18.586986303332893
lfingers 7.12502
lthumb -4.611365973129297 48.32017799053413
rclavicle -2.0261088021847407e-15 -7.115108381089583e-16
rhumerus -34.339083516058814 -25.56949022369184 -72.25272848430076
rradius 18.865228167511006
rwrist 10.438921677023497
rhand -18.049257199286465 22.5582036208449
rfingers 7.12502
rthumb 8.150891757776902 -7.58842926432026
92
root 0.4850236204958076 17.7091632814675 54.905358951531156 -3.035069947441755 2.436051603145711 -1.5982163138204286
lfemur 8.743824832849453 -4.1509601320701 -20.583926084497065
ltibia 38.12188440376154
lfoot 4.725699879248355 -13.30387059819719
ltoes -15.61805751920863
rfemur -23.82596291101433 2.7908908839094058 25.257952990636543
rtibia 26.380168185847445
rfoot -7.500855333697952 -8.317300532512519
rtoes 2.647179553787299
lowerback 10.018977001215012 -1.784322559877187 -1.2283333798771643
upperback -0.27629748193439685 -2.5847521339404627 2.5182691834929343
thorax -5.78767955269562 -1.226425646198769 4.557607491143508
lowerneck -16.385179466940667 -3.0138665840094916 -3.507821979961924
upperneck 22.062776904363762 -3.6247942515017373 1.3202962580065802
head 9.692044571098064 -1.7826923826831402 0.6374596504512717
lclavicle -2.024200422333007e-15 -7.103109927969478e-16
lhumerus -26.692545334657904 0.2939779277025578 80.8367626110459
lradius 31.03873382086076
lwrist 10.509702176866565
lhand -30.852085926238075 18.553509519113632
lfingers 7.12502
lthumb -4.097819142657181 48.34135400748973
rclavicle -2.024385758144965e-15 -7.104106626375728e-16
rhumerus -34.979644296320565 -26.315931532303203 -71.30307423618838
rradius 18.672435215175206
rwrist 10.327446671005365
rhand -17.959218444763618 22.521146100214626
rfingers 7.12502
rthumb 8.333198910007876 -7.454458110381717
93
root 0.453308307860693 17.736981120921843 55.79963508889632 -3.2861559469897252 2.416089559646621 -2.240857952621961
lfemur 3.148147518778842 -3.24272574300592 -18.165639745662975
ltibia 49.62581611968909
lfoot 11.667439549377383 -17.19086077252263
ltoes -5.974075577596136
rfemur -21.304670396859663 3.01301123436677 26.92398963597689
rtibia 27.09345192896565
rfoot -8.859447810099256 -6.93667006968561
rtoes 6.8429804578813584
lowerback 10.277267452421825 -1.7349249768075876 -0.4571272477971873
upperback -0.2732488575265602 -2.417939133294071 2.6958682805140395
thorax -5.942461185771704 -1.178541395414239 4.207717271265424
lowerneck -16.20522627759236 -3.0246639423799135 -3.4650124405139415
upperneck 21.992627732321413 -3.6635067639555183 1.4451467590647389
head 9.61906173523806 -1.793215674017689 0.6702605739808668
lclavicle -2.0260558004491817e-15 -7.11496387930752e-16
lhumerus -27.976984583408395 0.20349552460870646 81.40252895110328
lradius 30.68399526791715
lwrist 10.307268733795643
lhand -30.624740599218566 18.57272475146742
lfingers 7.12502
lthumb -3.9202552601366674 48.128791898113434
rclavicle -2.0243933648511723e-15 -7.104155755825377e-16
rhumerus -34.64171667672379 -25.257635068101237 -71.97730887839059
rradius 19.378478566064288
rwrist 8.619502714294622
rhand -17.788566932449914 22.74869505471476
rfingers 7.12502
rthumb 8.503323034006936 -7.080555011615164
94
root 0.427313787205355 17.772996214494334 56.456462445963865 -3.5291686830108557 2.1541275641351105 -2.7672949721665914
lfemur -2.6800222866389767 -2.273000891577758 -16.44359303426957
ltibia 59.44973552748867
lfoot 13.292888734117133 -16.66702139247146
ltoes -2.325613883482771
rfemur -18.642942919395928 3.142676180488591 28.44086036811876
rtibia 27.26054053537036
rfoot -10.207052935843612 -6.263442800124601
rtoes 8.577606793451977
lowerback 10.56200813502626 -1.5866946495213756 0.21253611154458119
upperback -0.18238572520156643 -2.115098532800008 2.7699572052824464
thorax -6.078798121414842 -1.0509575689759576 3.6770478450106054
lowerneck -16.05620289355472 -3.0536501351608583 -3.463568832977416
upperneck 21.943336324593716 -3.742129342123026 1.6092398020098309
head 9.596647630963327 -1.8149456372576942 0.7082195723709267
lclavicle -2.0285372806901903e-15 -7.130816360796715e-16
lhumerus -29.002027110260666 0.25745172369798963 81.87402617618454
lradius 29.91074985289184
lwrist 8.967980796463728
lhand -30.5161335261932 18.939520081839344
lfingers 7.12502
lthumb -3.703493849578626 48.41280342328576
rclavicle -2.0250337261418444e-15 -7.108245292052466e-16
rhumerus -33.6052402086839 -24.097099308193876 -73.05810673072895
rradius 20.262858247785253
rwrist 7.688714694328887
rhand -17.676590147480592 22.81434738850815
rfingers 7.12502
rthumb 8.56475063639459 -6.990794987158043
